inDegrees=no
num_controls=7
num_derivatives=13
num_iterations=57
num_multipliers=7
num_parameters=0
num_slacks=7
num_states=26
objective=0.363232
objective_accelerations=0.033693
objective_balance=0.006396
objective_effort=0.045442
objective_height=0.272874
objective_ligament=0.004827
solver_duration=872.256091
status=Solve_Succeeded
success=true
DataType=double
version=3
OpenSimVersion=4.5
endheader
time	/jointset/ground_pelvis/pelvis_tilt/value	/jointset/ground_pelvis/pelvis_tx/value	/jointset/ground_pelvis/pelvis_ty/value	/jointset/hip_l/hip_flexion_l/value	/jointset/hip_l/hip_adduction_l/value	/jointset/hip_l/hip_rotation_l/value	/jointset/back/lumbar_extension/value	/jointset/patellofemoral_l/patellar_flexion_l/value	/jointset/knee_l/knee_flexion_l/value	/jointset/knee_l/knee_adduction_l/value	/jointset/knee_l/knee_rotation_l/value	/jointset/ankle_l/ankle_angle_l/value	/jointset/subtalar_l/subtalar_angle_l/value	/jointset/ground_pelvis/pelvis_tilt/speed	/jointset/ground_pelvis/pelvis_tx/speed	/jointset/ground_pelvis/pelvis_ty/speed	/jointset/hip_l/hip_flexion_l/speed	/jointset/hip_l/hip_adduction_l/speed	/jointset/hip_l/hip_rotation_l/speed	/jointset/back/lumbar_extension/speed	/jointset/patellofemoral_l/patellar_flexion_l/speed	/jointset/knee_l/knee_flexion_l/speed	/jointset/knee_l/knee_adduction_l/speed	/jointset/knee_l/knee_rotation_l/speed	/jointset/ankle_l/ankle_angle_l/speed	/jointset/subtalar_l/subtalar_angle_l/speed	/forceset/tau_hip_flexion_l	/forceset/tau_hip_adduction_l	/forceset/tau_hip_rotation_l	/forceset/tau_knee_flexion_l	/forceset/tau_ankle_angle_l	/forceset/tau_subtalar_angle_l	/forceset/tau_lumbar_extension	lambda_cid13_p0	lambda_cid13_p1	lambda_cid13_p2	lambda_cid13_p3	lambda_cid13_p4	lambda_cid13_p5	lambda_cid14_p0	/jointset/ground_pelvis/pelvis_tilt/accel	/jointset/ground_pelvis/pelvis_tx/accel	/jointset/ground_pelvis/pelvis_ty/accel	/jointset/hip_l/hip_flexion_l/accel	/jointset/hip_l/hip_adduction_l/accel	/jointset/hip_l/hip_rotation_l/accel	/jointset/back/lumbar_extension/accel	/jointset/patellofemoral_l/patellar_flexion_l/accel	/jointset/knee_l/knee_flexion_l/accel	/jointset/knee_l/knee_adduction_l/accel	/jointset/knee_l/knee_rotation_l/accel	/jointset/ankle_l/ankle_angle_l/accel	/jointset/subtalar_l/subtalar_angle_l/accel	gamma_cid13_p0	gamma_cid13_p1	gamma_cid13_p2	gamma_cid13_p3	gamma_cid13_p4	gamma_cid13_p5	gamma_cid14_p0
1	-0.1780739847556628	-0.0172599418897946	0.3974768997735955	2.094291896823475	-0.234533904997609	0.1066230778555225	-0.4363180920764352	2.094394828506156	2.094394828506145	0.1741908823034484	0.1743289053678592	0.4354224558620688	0.1478949645027103	-0.0008951911162990174	-2.726764776832137e-05	0.0001923464120565445	9.317037784201178e-05	-7.306805325269618e-05	-0.0004060426409093418	7.492766960150666e-05	-0.0007569939989399067	-0.0007569939989399407	0.0001061866509822399	-1.045624452486703e-05	1.339904456746841e-06	-0.000108177682329764	-0.1022653329127319	-0.02174952685113512	-0.06532652696487468	-0.4958840528047773	0.1627526370035421	0.01356358058526008	0.1467185764503568	11.64641742642421	1.555517718940491	-11.48500106888621	-19.14585063876218	-635.4393308805817	-61.18239778621835	-0.02119036583109944	-0.7002089617286019	0.1940754488786616	0.09514493893024893	-0.02148464429956103	-0.1728931946810799	-0.3132045281961143	0.1384333233135846	-0.1669385501688766	-0.1669385501688721	0.1461814515506163	0.09720850433522622	0.5653822933527787	-0.01778524548791389	-2.835545788016867e-10	-4.644327999276865e-10	-5.743545189605025e-10	1.203841224494031e-09	3.311681833057082e-10	-2.221331748613473e-09	1.790957571149119e-10
1.01	-0.1781191550346469	-0.01725122714737886	0.3974840335835149	2.094292095895677	-0.2345429451197146	0.1066026915938663	-0.43631165276592	2.09437651754466	2.094376517544661	0.1741993444116818	0.1743331207088847	0.4354490066996697	0.1478927774606559	-0.008269730509416262	0.001698895975804553	0.001278561579216808	-6.839113830130638e-06	-0.001706215476018132	-0.003686260592917805	0.001100192320567204	-0.003147762752089062	-0.003147762752089173	0.001542352727052649	0.0008315958950000559	0.005132046299737788	-0.0003621256414293342	-0.1013924332140444	-0.02110902838728969	-0.06545687835673548	-0.4983747956389587	0.1632072499879438	0.01337036902384791	0.1458545135163801	11.6407845463518	1.707535030550821	-11.58590311733563	-18.13333312602555	-636.7096087378496	-61.30348486823675	-0.02127315471191372	-0.7757059849271688	0.1511896578124537	0.1219828038007263	0.002718782869683196	-0.1542139241114152	-0.3376879481883094	0.0676617187785007	-0.311530825838535	-0.3115308258385314	0.1357524185896976	0.07441534434147669	0.4603973706576974	-0.03413299738839707	-4.779397775566658e-10	-2.94479121602447e-09	-2.718803390015665e-09	4.278470956030161e-09	5.434006005913443e-09	-1.252614585015223e-08	5.973732698905222e-10
1.02	-0.1782419966189273	-0.01722739020098411	0.3975033541447442	2.094292690449852	-0.2345674543976558	0.1065490516487923	-0.43629834307233	2.094327021938041	2.094327021938046	0.1742208518272597	0.1743450989264188	0.4355215611128312	0.147887064253757	-0.01642945217549195	0.002997173148033636	0.002629696674042802	0.0001722667733272151	-0.003166899220268618	-0.007056779324329814	0.001449004283147921	-0.006993923023262558	-0.006993923023262733	0.002715248121300661	0.001542119057738701	0.009202055016696398	-0.0008134106512252999	-0.10051953351536	-0.02046852992344498	-0.06558722974860581	-0.5008655384731404	0.1636618629723452	0.0131771574624346	0.1449904505823998	11.63637879245407	1.860127480641598	-11.68779922864879	-17.14407477912356	-637.9788566444203	-61.40937526590704	-0.02135931572917174	-0.8572454163203505	0.1084981586099312	0.1481289244633855	0.03433843146637817	-0.1384004589781003	-0.3312646840768186	0.003142785636526858	-0.4580168537737023	-0.4580168537736952	0.09352731518614125	0.07090270897797775	0.3532427576883587	-0.0572526556271797	-7.991769211981059e-10	-3.424357067613004e-09	-2.837217993695876e-09	5.514594889770744e-09	4.504345295992544e-09	-1.717698680779099e-08	1.050497002251518e-09
1.03	-0.1784506749981646	-0.01719284510016327	0.3975377680433097	2.094296017401716	-0.2346056829127075	0.10646115855203	-0.4362844418607963	2.094230892257203	2.094230892257211	0.1742526174405907	0.1743634861830931	0.4356293387297857	0.1478758179751414	-0.02547946133622596	0.003826147216693079	0.004321731854744028	0.0005092963671674111	-0.004449793106453786	-0.010565703441945	0.001277705202391925	-0.0125651161967756	-0.01256511619677637	0.003593874402915231	0.002107804230375451	0.0121532217165891	-0.001478185147887526	-0.1004911876722547	-0.01964733967082482	-0.06576258627559899	-0.5037915093116113	0.1633262282177363	0.01297386284370556	0.1448193664260808	11.29547403033328	2.085526626284416	-11.81216437946945	-15.63469424409726	-640.2381467736409	-61.50252896544524	-0.02145725764506069	-0.954863923093336	0.05724341492065072	0.1900388338365716	0.03581150740422585	-0.1188817666537494	-0.3672852841062823	-0.03529617827678949	-0.6566363104864985	-0.6566363104865819	0.07843142381934315	0.04527364603908277	0.2360162787398925	-0.07743986172865354	-1.121708472440429e-09	-3.883506668543278e-09	-2.934958778321228e-09	6.731958560268503e-09	3.513128478596829e-09	-2.177013416192054e-08	1.503976308281753e-09
1.04	-0.178755050520438	-0.01715258098187041	0.3975911618974747	2.094303199906327	-0.2346558699492644	0.1063368604123904	-0.4362738596247321	2.094069057492362	2.094069057492369	0.1742918495445634	0.1743867047364172	0.4357606205442583	0.1478566539485505	-0.03556888078269921	0.004140976642437767	0.006425687793963839	0.0009433773234630378	-0.005558603521239575	-0.01433778789965639	0.000785209187829207	-0.02013493982414477	-0.02013493982414628	0.0042085462513388	0.002508378388314337	0.013902894520489	-0.002396960246265823	-0.1004628418291484	-0.01882614941820506	-0.06593794280260323	-0.5067174801500821	0.1629905934631266	0.01277056822497566	0.1446482822697625	10.95518912499054	2.311681654996525	-11.93763741244101	-14.13455343864543	-642.4962433427502	-61.58090935244829	-0.02156321917292396	-1.065127473468255	0.005669230027006571	0.230513076167099	0.0537487039574844	-0.103583764698233	-0.3838967520960554	-0.06109660112483992	-0.8577429445449023	-0.8577429445449215	0.04073642854794311	0.03788050603840746	0.1129439784898675	-0.1080527759703758	-1.449848740889988e-09	-5.512429570399452e-09	-3.263899745979967e-09	8.144747620368098e-09	1.831137570615725e-09	-3.268656052820372e-08	2.354081283835838e-09
1.05	-0.1791658646561847	-0.01711185849381676	0.3976679110452248	2.094314765721224	-0.234716237458194	0.1061734989961875	-0.4362695016568576	2.093820649571597	2.093820649571611	0.1743357071722231	0.1744130622958902	0.4359032603802565	0.1478270369691924	-0.04681631341560168	0.003904908549336719	0.009016750356150138	0.001361344248737356	-0.006485551470156214	-0.01840223255113604	7.797840605891091e-05	-0.02996931485619914	-0.02996931485620096	0.004514995779221239	0.002731645662450609	0.01440382549596522	-0.003577016407068391	-0.1009705162008206	-0.01787187439431852	-0.06615602024000848	-0.5102657341781238	0.1623283249242098	0.01254883453996014	0.1449353444865019	10.43637328053288	2.589941405598314	-12.08608048194908	-12.30533571532884	-645.6813313122375	-61.69370243784243	-0.02167940948650746	-1.187905680210268	-0.05303476469049415	0.2872941445679357	0.03455488973897716	-0.08284782248111128	-0.4278776255069791	-0.07679721391279347	-1.109686013628221	-1.109686013628251	0.01840411523464172	0.009829075665546019	-0.01451993099010619	-0.1305675291224308	-1.778164281752273e-09	-7.177907887909554e-09	-3.600065719358498e-09	9.563643723892751e-09	1.275599723038324e-10	-4.380058936361667e-08	3.216580811562541e-09
1.06	-0.1796958240226617	-0.01707645467383642	0.3977733490782612	2.094330258045953	-0.2347849939491113	0.1059674612727026	-0.4362724681762362	2.093461217654294	2.093461217654312	0.1743811902752202	0.1744407083756127	0.436044272008395	0.1477841023296287	-0.05939792692886807	0.003077243027773788	0.01216346485127458	0.001728679291073927	-0.007236399918781845	-0.02287304935593783	-0.0006796882640993953	-0.04233973913195446	-0.0423397391319565	0.004533641320153388	0.002766082439159232	0.01357725294877804	-0.005060492287360079	-0.1014781905724895	-0.01691759937043304	-0.06637409767742061	-0.5138139882061658	0.1616660563852916	0.01232710085494238	0.1452224067032443	9.917506951889793	2.869223065499634	-12.23584365259219	-10.46900227863348	-648.8647134930097	-61.79116039954272	-0.02180965539193416	-1.331963649541085	-0.1126502556653448	0.3416434627547288	0.04362232736993368	-0.06836386464003656	-0.4651711827604773	-0.07118377880242856	-1.364952793285075	-1.364952793285074	-0.01682436884211481	0.0001144065528744258	-0.1525567260427382	-0.1687367198681749	-2.18472886808787e-09	-1.041317309024241e-08	-5.154686839094062e-09	1.144328475179741e-08	-1.814088422086462e-09	-6.167496034006426e-08	4.4380569450509e-09
1.07	-0.1803580748767096	-0.01705227691517566	0.3979132393249017	2.094348302804798	-0.2348603755755229	0.1057147808121218	-0.4362829366581353	2.092964970887883	2.0929649708879	0.1744252341162164	0.1744677474202143	0.4361706246032894	0.1477249343146579	-0.07327147296855734	0.001659508929348566	0.01592592742678031	0.001807654093467251	-0.007814622261979294	-0.02774500401900597	-0.001372849288114426	-0.05737687427314232	-0.05737687427313993	0.004226405799475213	0.00261076800924856	0.01148734209724555	-0.006822610686811716	-0.1029740036212607	-0.01601222455886113	-0.06659463251315755	-0.5173121370815358	0.1602313135829233	0.01219240434390988	0.1463236089825577	9.107550562313968	3.14653839105113	-12.36800682243317	-8.381212918696475	-652.7611299962672	-61.94242260115375	-0.02193307299182119	-1.447933664292182	-0.1711522567080882	0.4102483161417904	-0.02085716137440556	-0.04875518927631028	-0.5104995752581993	-0.06220844003770775	-1.643184046216503	-1.643184046215838	-0.04497697346762899	-0.02799365126409682	-0.268097679459008	-0.1873713013787787	-2.595455637693324e-09	-1.373193759495946e-08	-6.774119402784795e-09	1.334743348844569e-08	-3.768400156693694e-09	-7.99089239835882e-08	5.678627578845734e-09
1.08	-0.1811656379077753	-0.01704523995145451	0.3980940943295359	2.094364958868047	-0.2349407801793897	0.1054109224114747	-0.4362991019854332	2.092304334735724	2.09230433473574	0.1744647448360437	0.1744923054638101	0.4362699002067151	0.1476466607354135	-0.08846036233262292	-0.0003509159601494453	0.02035641645001507	0.00145094017392216	-0.008240995409845563	-0.03310863736920264	-0.001819057345597371	-0.07521761628156476	-0.07521761628155793	0.003627017087318448	0.002269882239295634	0.008161854655693855	-0.008881605142067936	-0.1044698166700326	-0.01510684974728821	-0.06681516734889507	-0.5208102859569058	0.1587965707805552	0.0120577078328793	0.147424811261871	8.29685977499247	3.425149694938602	-12.50171006904562	-6.268798988800444	-656.6550297721606	-62.07721715495225	-0.02207757494346142	-1.595032314416385	-0.2311884138798798	0.4752487523005385	-0.04351541701777859	-0.03799402557379919	-0.5635069201861717	-0.02179318549595846	-1.92567416673198	-1.92567416673198	-0.07525500713783589	-0.03699986145559015	-0.3996720440465034	-0.2281119310290562	-4.508574504769356e-10	-2.422262346143709e-08	-1.064672050241238e-08	8.149766629188355e-09	-1.124358205955082e-08	-1.26208733357617e-07	8.310053367368502e-09
